<?xml version="1.0" encoding="UTF-8"?><svg id="uuid-92e9910a-f36a-474d-af0f-2ff4c4d28b2a" xmlns="http://www.w3.org/2000/svg" viewBox="0 0 980.1 907.4"><defs><style>.uuid-af40435b-cc3b-4aea-9c4a-934e402a8f03{fill:#fff;}</style></defs><path class="uuid-af40435b-cc3b-4aea-9c4a-934e402a8f03" d="m236.1,653.3s-90.7,87.1-90.7,141.6c0,39.9,29,76.3,90.7,76.3s90.7-39.9,90.7-76.3c.1-54.5-90.7-141.6-90.7-141.6Zm0,181.6c-29,0-54.5-10.8-54.5-43.7,0-25.4,54.5-83.5,54.5-83.5,0,0,54.5,58.1,54.5,83.5,0,29.1-25.4,43.7-54.5,43.7Z"/><path class="uuid-af40435b-cc3b-4aea-9c4a-934e402a8f03" d="m744.3,653.3s-90.7,87.1-90.7,141.6c0,39.9,29,76.3,90.7,76.3s90.7-39.9,90.7-76.3c0-54.5-90.7-141.6-90.7-141.6Zm0,181.6c-29,0-54.5-10.8-54.5-43.7,0-25.4,54.5-83.5,54.5-83.5,0,0,54.5,58.1,54.5,83.5-.1,29.1-25.5,43.7-54.5,43.7Z"/><path class="uuid-af40435b-cc3b-4aea-9c4a-934e402a8f03" d="m871.4,268.5c0-109-90.7-196.1-199.7-196.1-39.9,0-72.5,10.8-105.3,29C519.1,39.8,446.6,0,363.1,0,221.5,0,109,112.5,109,254.1v14.4C43.7,297.5,0,359.2,0,435.5c0,101.6,79.9,181.5,181.5,181.5h617.1c101.5,0,181.5-79.9,181.5-181.5.3-76.2-43.4-137.9-108.7-167Zm-72.7,312.3H181.6c-79.9,0-145.2-65.3-145.2-145.2,0-68.9,47.3-127,112.6-141.6-3.6-14.6-3.6-25.4-3.6-39.9,0-119.8,97.9-217.9,217.9-217.9,83.5,0,159.6,47.3,196.1,119.8,29-29,68.9-47.3,112.6-47.3,90.7,0,163.4,72.5,163.4,163.4v21.8c61.7,14.4,109,72.5,109,141.6-.5,80-65.8,145.3-145.7,145.3Z"/><path class="uuid-af40435b-cc3b-4aea-9c4a-934e402a8f03" d="m490.3,689.5s-90.7,87.1-90.7,141.6c0,39.9,29,76.3,90.7,76.3s90.7-39.9,90.7-76.3c0-54.4-90.7-141.6-90.7-141.6Zm0,181.7c-29,0-54.5-10.8-54.5-43.7,0-25.4,54.5-83.5,54.5-83.5,0,0,54.5,58.1,54.5,83.5-.2,29.1-25.5,43.7-54.5,43.7Z"/></svg>