<?xml version="1.0" encoding="utf-8"?>
<!-- Svg Vector Icons : http://www.onlinewebfonts.com/icon -->
<!DOCTYPE svg PUBLIC "-//W3C//DTD SVG 1.1//EN" "http://www.w3.org/Graphics/SVG/1.1/DTD/svg11.dtd">
<svg version="1.1" xmlns="http://www.w3.org/2000/svg" xmlns:xlink="http://www.w3.org/1999/xlink" x="0px" y="0px" viewBox="0 0 1000 1000" enable-background="new 0 0 1000 1000" xml:space="preserve">
<metadata> Svg Vector Icons : http://www.onlinewebfonts.com/icon </metadata>
<g><g><g><path d="M246.1,699.6c0,0-90.7,87.1-90.7,141.6c0,39.9,29,76.3,90.7,76.3c61.7,0,90.7-39.9,90.7-76.3C336.9,786.7,246.1,699.6,246.1,699.6z M246.1,881.2c-29,0-54.5-10.8-54.5-43.7c0-25.4,54.5-83.5,54.5-83.5s54.5,58.1,54.5,83.5C300.6,866.6,275.2,881.2,246.1,881.2z"/><path d="M754.3,699.6c0,0-90.7,87.1-90.7,141.6c0,39.9,29,76.3,90.7,76.3c61.7,0,90.7-39.9,90.7-76.3C845,786.7,754.3,699.6,754.3,699.6z M754.3,881.2c-29,0-54.5-10.8-54.5-43.7c0-25.4,54.5-83.5,54.5-83.5s54.5,58.1,54.5,83.5C808.7,866.6,783.3,881.2,754.3,881.2z"/><path d="M881.4,314.8c0-109-90.7-196.1-199.7-196.1c-39.9,0-72.5,10.8-105.3,29C529.1,86.1,456.6,46.3,373.1,46.3C231.5,46.3,119,158.8,119,300.4c0,3.6,0,10.8,0,14.4c-65.3,29-109,90.7-109,167c0,101.6,79.9,181.5,181.5,181.5h617.1c101.5,0,181.5-79.9,181.5-181.5C990.4,405.6,946.7,343.9,881.4,314.8z M808.7,627.1H191.6c-79.9,0-145.2-65.3-145.2-145.2c0-68.9,47.3-127,112.6-141.6c-3.6-14.6-3.6-25.4-3.6-39.9c0-119.8,97.9-217.9,217.9-217.9c83.5,0,159.6,47.3,196.1,119.8c29-29,68.9-47.3,112.6-47.3c90.7,0,163.4,72.5,163.4,163.4c0,7.2,0,14.4,0,21.8c61.7,14.4,109,72.5,109,141.6C953.9,561.8,888.6,627.1,808.7,627.1z"/><path d="M500.3,735.8c0,0-90.7,87.1-90.7,141.6c0,39.9,29,76.3,90.7,76.3c61.7,0,90.7-39.9,90.7-76.3C591,823,500.3,735.8,500.3,735.8z M500.3,917.5c-29,0-54.5-10.8-54.5-43.7c0-25.4,54.5-83.5,54.5-83.5s54.5,58.1,54.5,83.5C554.6,902.9,529.3,917.5,500.3,917.5z"/></g></g><g></g><g></g><g></g><g></g><g></g><g></g><g></g><g></g><g></g><g></g><g></g><g></g><g></g><g></g><g></g></g>
</svg>