<?xml version="1.0" encoding="UTF-8"?><svg id="uuid-23947708-7bff-4196-ae19-b0a72f84936b" xmlns="http://www.w3.org/2000/svg" viewBox="0 0 78.3 252.9"><defs><style>.uuid-f7531060-7d26-4606-85b4-9ec44f78fca4{fill:#fff;}</style></defs><path class="uuid-f7531060-7d26-4606-85b4-9ec44f78fca4" d="m39.15,252.9c-21.59,0-39.15-17.56-39.15-39.15,0-13.96,7.37-26.74,19.36-33.76V19.79C19.36,8.88,28.23,0,39.15,0s19.79,8.88,19.79,19.79v160.2c11.98,7.02,19.36,19.81,19.36,33.76,0,21.59-17.56,39.15-39.15,39.15Zm0-247.28c-7.81,0-14.17,6.36-14.17,14.17v163.54l-1.49.79c-11.02,5.84-17.86,17.19-17.86,29.63,0,18.49,15.04,33.53,33.53,33.53s33.53-15.04,33.53-33.53c0-12.44-6.85-23.8-17.86-29.63l-1.49-.79V19.79c0-7.81-6.36-14.17-14.17-14.17Z"/><path class="uuid-f7531060-7d26-4606-85b4-9ec44f78fca4" d="m41.96,191.31v-71.68c0-1.55-1.26-2.81-2.81-2.81s-2.81,1.26-2.81,2.81v71.68c-11.16,1.39-19.83,10.91-19.83,22.44,0,12.48,10.16,22.64,22.64,22.64s22.64-10.15,22.64-22.64c0-11.53-8.67-21.05-19.83-22.44Z"/><path class="uuid-f7531060-7d26-4606-85b4-9ec44f78fca4" d="m39.15,91.88h-16.98c-1.55,0-2.81-1.26-2.81-2.81s1.26-2.81,2.81-2.81h16.98c1.55,0,2.81,1.26,2.81,2.81s-1.26,2.81-2.81,2.81Z"/><path class="uuid-f7531060-7d26-4606-85b4-9ec44f78fca4" d="m30.66,65.44h-8.49c-1.55,0-2.81-1.26-2.81-2.81s1.26-2.81,2.81-2.81h8.49c1.55,0,2.81,1.26,2.81,2.81s-1.26,2.81-2.81,2.81Z"/><path class="uuid-f7531060-7d26-4606-85b4-9ec44f78fca4" d="m39.15,39.01h-16.98c-1.55,0-2.81-1.26-2.81-2.81s1.26-2.81,2.81-2.81h16.98c1.55,0,2.81,1.26,2.81,2.81s-1.26,2.81-2.81,2.81Z"/></svg>