<?xml version="1.0" encoding="UTF-8"?><svg id="uuid-0b14c6f6-85df-4973-a897-21014b8e2592" xmlns="http://www.w3.org/2000/svg" viewBox="0 0 398.21 800"><defs><style>.uuid-530adacc-f8cd-4da9-9a02-706232f79d07{fill:#fff;}</style></defs><path class="uuid-530adacc-f8cd-4da9-9a02-706232f79d07" d="m227.02,800c-23.1,0-45.52-4.53-66.64-13.46-20.39-8.62-38.69-20.96-54.41-36.68-15.72-15.72-28.06-34.02-36.68-54.41-8.93-21.12-13.46-43.54-13.46-66.64,0-27.37,6.63-54.6,19.16-78.75,10.79-20.78,25.96-39.36,44.17-54.18V81.58c0-44.98,36.6-81.58,81.58-81.58h52.57c44.98,0,81.58,36.6,81.58,81.58v414.31c18.21,14.81,33.38,33.39,44.17,54.18,12.53,24.14,19.16,51.38,19.16,78.75,0,23.1-4.53,45.52-13.46,66.64-8.62,20.39-20.96,38.69-36.68,54.41-15.72,15.72-34.02,28.06-54.41,36.68-21.11,8.93-43.53,13.46-66.64,13.46ZM200.73,33.6c-26.46,0-47.98,21.52-47.98,47.98v422.55c0,5.36-2.56,10.39-6.88,13.56-35.35,25.86-56.45,67.4-56.45,111.12,0,75.87,61.72,137.59,137.6,137.59s137.6-61.73,137.6-137.59c0-43.72-21.1-85.26-56.45-111.12-4.32-3.16-6.88-8.2-6.88-13.56V81.58c0-26.46-21.52-47.98-47.98-47.98h-52.57Z"/><path class="uuid-530adacc-f8cd-4da9-9a02-706232f79d07" d="m262.69,530.65V163.88c0-14.56-11.8-26.36-26.36-26.36h-18.62c-14.56,0-26.36,11.8-26.36,26.36v366.78c-40.1,14.57-68.74,53.02-68.74,98.16,0,57.67,46.75,104.41,104.41,104.41s104.41-46.75,104.41-104.41c0-45.14-28.64-83.58-68.74-98.16Zm-58.8,65.66c-7.81,6.93-12.86,16.04-14.61,26.36-.92,5.44-.86,10.91.18,16.26,1.34,6.86-3.14,13.51-10.01,14.85-.82.16-1.63.24-2.44.24-5.94,0-11.24-4.2-12.42-10.24-1.63-8.35-1.73-16.88-.29-25.33,2.68-15.85,10.77-30.44,22.78-41.08,5.23-4.64,13.24-4.16,17.88,1.07,4.64,5.23,4.16,13.23-1.07,17.88Z"/><g><g><g><path class="uuid-530adacc-f8cd-4da9-9a02-706232f79d07" d="m55.86,122.94c0,7.6-6.16,13.77-13.77,13.77H13.77c-7.61,0-13.77-6.17-13.77-13.77v-15.01c0-7.61,6.17-13.77,13.77-13.77h28.31c7.61,0,13.77,6.16,13.77,13.77v15.01Z"/><path class="uuid-530adacc-f8cd-4da9-9a02-706232f79d07" d="m55.86,212.73c0,7.61-6.16,13.77-13.77,13.77H13.77c-7.61,0-13.77-6.16-13.77-13.77v-15.01c0-7.61,6.17-13.77,13.77-13.77h28.31c7.61,0,13.77,6.16,13.77,13.77v15.01Z"/><path class="uuid-530adacc-f8cd-4da9-9a02-706232f79d07" d="m55.86,302.52c0,7.61-6.16,13.77-13.77,13.77H13.77c-7.61,0-13.77-6.16-13.77-13.77v-15.01c0-7.61,6.17-13.78,13.77-13.78h28.31c7.61,0,13.77,6.17,13.77,13.78v15.01Z"/></g><path class="uuid-530adacc-f8cd-4da9-9a02-706232f79d07" d="m55.86,392.31c0,7.61-6.16,13.78-13.77,13.78H13.77c-7.61,0-13.77-6.17-13.77-13.78v-15.01c0-7.61,6.17-13.77,13.77-13.77h28.31c7.61,0,13.77,6.16,13.77,13.77v15.01Z"/></g><path class="uuid-530adacc-f8cd-4da9-9a02-706232f79d07" d="m55.86,482.1c0,7.61-6.16,13.78-13.77,13.78H13.77c-7.61,0-13.77-6.16-13.77-13.78v-15.01c0-7.6,6.17-13.77,13.77-13.77h28.31c7.61,0,13.77,6.17,13.77,13.77v15.01Z"/></g></svg>