<?xml version="1.0" encoding="UTF-8"?><svg id="uuid-430557d2-10b8-4beb-bdd6-0c83f29372e9" xmlns="http://www.w3.org/2000/svg" viewBox="0 0 979.99 979.99"><defs><style>.uuid-d46b184f-4136-43e8-bf3a-1bb7a8e2de45{fill:#fff;}</style></defs><path class="uuid-d46b184f-4136-43e8-bf3a-1bb7a8e2de45" d="m625.17,1.98c-6.52,2.88-45.64,45.45-80.54,87.44-113.14,136.72-191.18,267.69-230.87,387.92-6.71,20.33-8.82,24.35-11.31,23.2-39.69-16.68-82.65-11.7-117.16,13.62-17.26,12.66-29.53,16.87-47.94,16.87s-28.96-3.64-49.86-17.83c-18.79-12.85-33.94-18.99-52.54-21.48-14.58-1.92-17.26-1.92-23.4.96-8.82,4.41-13.42,14.38-10.35,23.39,3.26,9.97,7.86,12.66,23.97,14.57,16.49,1.73,26.27,6.14,50.05,21.48,22.43,14.77,32.98,17.64,62.13,17.64s41.04-3.45,67.88-21.09c23.2-15.34,34.9-19.18,55.03-17.64,15.92.96,27.61,5.75,43.72,17.45,21.09,15.34,42.19,22.25,68.65,22.25s42.57-5.18,72.67-24.93c15.72-10.16,29.53-15.34,41.42-15.34,8.63,0,17.83-4.22,20.71-9.4,2.88-5.56,2.3-16.87-1.15-22.24-4.41-6.52-14-9.2-28.19-7.67-19.94,2.3-34.13,7.86-55.99,22.05-11.51,7.48-24.35,14.38-28.57,15.72-10.55,3.07-34.9,2.49-44.3-.96-9.4-3.26-9.4-2.69,2.88-39.69,41.99-126.17,133.46-272.1,261.55-417.83l19.37-21.86,12.27,13.23c21.09,22.63,70.57,82.65,96.07,116.78,150.14,200.19,217.83,376.6,194.63,507.19-20.71,116.77-107.38,212.08-221.29,243.52-71.52,19.75-146.5,13.04-214.19-19.37-24.74-11.7-69.8-42-69.8-46.79,0-.58,6.52-5.37,14.57-10.55,15.72-10.16,29.53-15.34,41.42-15.34,8.63,0,17.83-4.22,20.71-9.4,2.88-5.56,2.3-16.87-1.15-22.24-9.78-14.96-48.51-9.01-81.11,12.46-22.44,14.77-25.69,16.3-39.89,18.98-8.24,1.53-15.15,1.72-23.01.38-15.15-2.49-19.18-4.22-38.35-16.87-20.9-13.61-34.52-19.17-54.07-22.05-29.34-4.03-59.25,3.83-84.56,22.44-17.26,12.65-29.53,16.87-47.94,16.87s-28.96-3.64-49.86-17.83c-18.79-12.85-33.94-18.98-52.54-21.48-14.57-1.92-17.26-1.92-23.39.96-8.82,4.41-13.42,14.38-10.35,23.39,3.26,9.97,7.86,12.66,23.97,14.57,16.49,1.73,26.27,6.14,50.05,21.48,22.43,14.77,32.98,17.64,62.13,17.64s41.04-3.45,67.88-21.09c23.2-15.34,34.9-19.18,55.03-17.64,16.11.96,25.69,4.99,45.25,18.22,23.59,15.92,40.46,21.48,65.77,21.48h15.53l10.93,10.16c26.08,24.35,52.16,42,85.14,57.91,171.04,82.07,374.88,12.46,460.59-157.43,56.18-111.03,47.56-241.04-26.08-400.58-48.51-105.08-132.88-228.95-231.64-340.36C644.34.64,638.4-3.77,625.17,1.98Z"/><path class="uuid-d46b184f-4136-43e8-bf3a-1bb7a8e2de45" d="m474.45,593.92c-17.83,2.3-31.26,7.86-51.39,21.09-22.05,14.39-28.57,17.07-44.87,18.42-20.9,1.92-29.91,12.65-23.39,28.19,4.41,10.55,12.46,13.23,32.02,10.74,19.56-2.3,33.94-8.25,55.99-22.82,17.83-11.7,33.37-17.45,47.36-17.45s29.53,5.75,47.36,17.45c31.06,20.52,55.22,26.85,85.71,22.63,19.37-2.49,30.3-6.9,51.77-20.9,22.24-14.38,28.38-16.87,45.06-18.41,10.35-.96,14.76-2.3,18.41-5.75,8.63-7.86,8.63-20.13,0-28.76-4.03-4.03-6.33-4.6-18.79-4.6-22.44,0-38.73,5.94-67.69,24.93-32.02,20.9-57.14,20.9-88.97-.19-22.24-14.59-30.1-18.43-43.71-21.69-15.54-3.83-29.92-4.79-44.87-2.88Z"/><path class="uuid-d46b184f-4136-43e8-bf3a-1bb7a8e2de45" d="m7.34,597.57c-9.59,9.2-9.78,21.48-.38,29.34,4.03,3.45,8.63,4.98,18.22,5.75,14.19,1.34,27.8,6.9,42.19,17.07,26.65,18.98,54.27,26.46,83.6,22.82,18.98-2.49,32.79-7.86,51.01-19.75,21.09-13.81,32.02-18.41,47.36-19.94,17.07-1.72,24.54-7.48,24.93-19.56,0-6.33-.96-9.01-5.56-13.81-5.18-5.37-6.52-5.75-18.98-5.75-22.82,0-39.12,5.75-63.28,22.05-23.01,15.34-27.8,17.06-49.09,17.06s-25.69-1.53-51.01-18.22c-22.45-14.76-35.49-19.36-57.35-20.32-15.72-.77-17.64-.58-21.66,3.26Z"/><path class="uuid-d46b184f-4136-43e8-bf3a-1bb7a8e2de45" d="m7.34,700.16c-7.48,6.14-9.2,13.81-5.37,22.82,3.45,8.25,12.08,12.66,24.74,12.66,11.89,0,22.63,4.22,39.31,15.53,24.35,16.68,46.6,24.74,67.88,24.74,19.94,0,29.91-18.79,17.26-32.79-4.6-5.18-6.9-6.13-19.94-7.48-17.64-2.11-23.78-4.6-41.99-16.87-18.79-12.66-28-17.07-42.38-20.52-19.19-4.42-32.8-3.85-39.51,1.91Z"/><path class="uuid-d46b184f-4136-43e8-bf3a-1bb7a8e2de45" d="m244.92,697.86c-12.85,7.67-12.85,27.23.19,34.13,2.3,1.15,10.35,2.88,18.02,3.84,14.76,1.53,24.74,5.75,39.88,16.49,24.16,17.26,50.81,25.12,77.85,23.01,21.67-1.73,36.82-7.29,60.4-22.44,11.51-7.48,23.97-14.38,27.8-15.34,10.35-2.88,40.46-2.3,49.86.96,4.41,1.53,15.72,8.05,25.12,14.19,30.11,19.94,62.7,28.38,78.43,20.33,7.1-3.64,9.59-8.25,9.59-17.64,0-12.27-9.59-19.75-24.74-19.75-11.89,0-23.78-4.6-41.23-16.11-30.49-19.75-43.72-24.16-73.06-24.16s-46.79,5.94-71.91,23.01c-19.94,13.42-26.46,15.92-44.29,16.87-21.29,1.15-30.3-1.92-54.46-17.83-10.35-6.71-23.97-14-30.49-16.3-15.13-5.18-40.63-6.91-46.96-3.26Z"/></svg>