<?xml version="1.0" encoding="UTF-8"?><svg id="uuid-e11e9c4d-0af0-4a33-912f-73ccef921cb1" xmlns="http://www.w3.org/2000/svg" viewBox="0 0 125.1 251.4"><defs><style>.uuid-4a7c77ba-4b16-402a-a8ef-48b231a90a06{fill:#fff;}</style></defs><path class="uuid-4a7c77ba-4b16-402a-a8ef-48b231a90a06" d="m68.8,176.3V26.4c0-14.5-11.9-26.4-26.4-26.4S15.9,11.8,15.9,26.4v149.9c-9.8,7.9-15.9,20.1-15.9,32.8,0,23.3,19,42.3,42.3,42.3s42-19,42-42.3c.1-12.7-5.7-24.9-15.5-32.8Zm-26.4,66.1c-18.2,0-33-14.8-33-33,0-11.6,6.1-22.2,15.9-28.3V26.6c0-9.5,7.7-17.4,17.4-17.4s17.4,7.7,17.4,17.4v154.4c9.5,6.1,15.9,16.7,15.9,28.3-.6,18.3-15.4,33.1-33.6,33.1Z"/><path class="uuid-4a7c77ba-4b16-402a-a8ef-48b231a90a06" d="m50.6,186.6v-39.5c0-4.5-3.7-8.2-8.2-8.2s-8.2,3.7-8.2,8.2v39.5c-9.3,3.4-15.9,12.2-15.9,22.5,0,13.2,10.8,24.1,24.1,24.1s24.1-10.8,24.1-24.1c-.1-10.4-6.7-19.1-15.9-22.5Z"/><rect class="uuid-4a7c77ba-4b16-402a-a8ef-48b231a90a06" x="78" y="26.9" width="47.1" height="9"/><rect class="uuid-4a7c77ba-4b16-402a-a8ef-48b231a90a06" x="78" y="56.8" width="24.4" height="9"/><rect class="uuid-4a7c77ba-4b16-402a-a8ef-48b231a90a06" x="78" y="86.9" width="47.1" height="9"/><rect class="uuid-4a7c77ba-4b16-402a-a8ef-48b231a90a06" x="78" y="116.8" width="24.4" height="9"/><rect class="uuid-4a7c77ba-4b16-402a-a8ef-48b231a90a06" x="78" y="146.7" width="47.1" height="9"/></svg>